<?xml version="1.0" encoding="UTF-8"?>
<svg xmlns="http://www.w3.org/2000/svg" viewBox="0 0 16 16">
    <path style="line-height:normal;text-indent:0;text-align:start;text-decoration-line:none;text-decoration-style:solid;text-decoration-color:#000;text-transform:none;block-progression:tb;isolation:auto;mix-blend-mode:normal" d="M 2.5 2 C 2.0900381 2 1.6984009 2.1441855 1.421875 2.4199219 C 1.1453491 2.6956582 1 3.0876653 1 3.5 L 1 4.5 A 0.50005 0.50005 0 0 0 1.5 5 L 3 5 L 3 12.375 C 3 13.199669 3.6105159 14 4.5 14 L 13.417969 14 L 13.417969 13.992188 C 13.445554 13.993508 13.472216 14 13.5 14 C 13.909962 14 14.301599 13.855814 14.578125 13.580078 C 14.854651 13.304342 15 12.912335 15 12.5 L 15 11.5 A 0.50005 0.50005 0 0 0 14.5 11 L 13 11 L 13 3.5 C 13 3.0876653 12.854651 2.6956582 12.578125 2.4199219 C 12.317203 2.1597448 11.952946 2.0211755 11.568359 2.0058594 A 0.50005 0.50005 0 0 0 11.505859 2 C 11.503893 1.9999934 11.501968 2 11.5 2 L 2.5 2 z M 2.5 3 L 10.232422 3 C 10.144686 3.2093287 10 3.3950674 10 3.625 L 10 4 L 2 4 L 2 3.5 C 2 3.3093347 2.0551821 3.20242 2.1289062 3.1289062 C 2.2026305 3.0553926 2.3109619 3 2.5 3 z M 11.5 3 C 11.689038 3 11.79737 3.0553931 11.871094 3.1289062 C 11.944818 3.20242 12 3.3093347 12 3.5 L 12 12.5 C 12 12.673229 12.031775 12.841061 12.082031 13 L 4.5 13 C 4.1914841 13 4 12.756331 4 12.375 L 4 5 L 10.5 5 A 0.50005 0.50005 0 0 0 11 4.5 L 11 3.625 C 11 3.2436694 11.191484 3 11.5 3 z M 5 6 L 5 7 L 10 7 L 10 6 L 5 6 z M 5 8 L 5 9 L 10 9 L 10 8 L 5 8 z M 5 10 L 5 11 L 8 11 L 8 10 L 5 10 z M 13 12 L 14 12 L 14 12.5 C 14 12.690665 13.94482 12.79758 13.871094 12.871094 C 13.79737 12.944607 13.689038 13 13.5 13 C 13.310962 13 13.20263 12.944607 13.128906 12.871094 C 13.055182 12.79758 13 12.690665 13 12.5 L 13 12 z" font-weight="400" font-family="sans-serif" white-space="normal" overflow="visible"/>
</svg>